<svg xmlns="http://www.w3.org/2000/svg" xmlns:xlink="http://www.w3.org/1999/xlink" width="18px" height="20px" viewBox="0 0 18 19" version="1.1"><defs><linearGradient id="linear0" gradientUnits="userSpaceOnUse" x1="26.648937" y1="20.603781" x2="135.66525" y2="114.39767" gradientTransform="matrix(0.0880499,0,0,0.0856466,-2.346436,-1.764643)"><stop offset="0" style="stop-color:rgb(35.294118%,62.352941%,83.137255%);stop-opacity:1;"/><stop offset="1" style="stop-color:rgb(18.823529%,41.176471%,59.607843%);stop-opacity:1;"/></linearGradient><linearGradient id="linear1" gradientUnits="userSpaceOnUse" x1="150.96111" y1="192.35176" x2="112.03144" y2="137.27299" gradientTransform="matrix(0.0880499,0,0,0.0856466,-2.346436,-1.764643)"><stop offset="0" style="stop-color:rgb(100%,83.137255%,23.137255%);stop-opacity:1;"/><stop offset="1" style="stop-color:rgb(100%,90.980392%,45.098039%);stop-opacity:1;"/></linearGradient><filter id="alpha" filterUnits="objectBoundingBox" x="0%" y="0%" width="100%" height="100%">  <feColorMatrix type="matrix" in="SourceGraphic" values="0 0 0 0 1 0 0 0 0 1 0 0 0 0 1 0 0 0 1 0"/></filter><mask id="mask0">  <g filter="url(#alpha)"><rect x="0" y="0" width="18" height="19" style="fill:rgb(0%,0%,0%);fill-opacity:0.443137;stroke:none;"/>  </g></mask><radialGradient id="radial0" gradientUnits="userSpaceOnUse" cx="61.518883" cy="132.28575" fx="61.518883" fy="132.28575" r="29.036913" gradientTransform="matrix(0.00000000273765,-0.0361825,0.165078,0.0000000571741,-13.100995,21.482367)"><stop offset="0" style="stop-color:rgb(72.156863%,72.156863%,72.156863%);stop-opacity:0.498039;"/><stop offset="1" style="stop-color:rgb(49.803922%,49.803922%,49.803922%);stop-opacity:0;"/></radialGradient><clipPath id="clip1">  <rect x="0" y="0" width="18" height="19"/></clipPath><g id="surface5" clip-path="url(#clip1)"><path style=" stroke:none;fill-rule:nonzero;fill:url(#radial0);" d="M 14.359375 19.257812 C 14.359375 18.675781 11.84375 18.207031 8.738281 18.207031 C 5.628906 18.207031 3.113281 18.675781 3.113281 19.257812 C 3.113281 19.835938 5.628906 20.308594 8.738281 20.308594 C 11.84375 20.308594 14.359375 19.835938 14.359375 19.257812 Z M 14.359375 19.257812 "/></g></defs><g id="surface1"><path style=" stroke:none;fill-rule:nonzero;fill:url(#linear0);" d="M 8.597656 0 C 7.878906 0.00390625 7.195312 0.0625 6.589844 0.164062 C 4.816406 0.46875 4.492188 1.101562 4.492188 2.265625 L 4.492188 3.808594 L 8.6875 3.808594 L 8.6875 4.320312 L 2.917969 4.320312 C 1.699219 4.320312 0.628906 5.027344 0.296875 6.371094 C -0.0898438 7.910156 -0.105469 8.871094 0.296875 10.480469 C 0.59375 11.675781 1.304688 12.53125 2.527344 12.53125 L 3.96875 12.53125 L 3.96875 10.683594 C 3.96875 9.347656 5.167969 8.171875 6.589844 8.171875 L 10.78125 8.171875 C 11.949219 8.171875 12.878906 7.246094 12.878906 6.117188 L 12.878906 2.265625 C 12.878906 1.171875 11.921875 0.347656 10.78125 0.164062 C 10.0625 0.0507812 9.3125 -0.00390625 8.597656 0 Z M 6.328125 1.238281 C 6.761719 1.238281 7.113281 1.585938 7.113281 2.011719 C 7.113281 2.4375 6.761719 2.78125 6.328125 2.78125 C 5.890625 2.78125 5.539062 2.4375 5.539062 2.011719 C 5.539062 1.585938 5.890625 1.238281 6.328125 1.238281 Z M 6.328125 1.238281 "/><path style=" stroke:none;fill-rule:nonzero;fill:url(#linear1);" d="M 13.402344 4.320312 L 13.402344 6.117188 C 13.402344 7.507812 12.179688 8.679688 10.78125 8.679688 L 6.589844 8.679688 C 5.441406 8.679688 4.492188 9.628906 4.492188 10.734375 L 4.492188 14.585938 C 4.492188 15.679688 5.480469 16.324219 6.589844 16.640625 C 7.917969 17.015625 9.191406 17.082031 10.78125 16.640625 C 11.839844 16.34375 12.878906 15.75 12.878906 14.585938 L 12.878906 13.042969 L 8.6875 13.042969 L 8.6875 12.53125 L 14.980469 12.53125 C 16.199219 12.53125 16.652344 11.710938 17.078125 10.480469 C 17.515625 9.214844 17.496094 7.996094 17.078125 6.371094 C 16.777344 5.203125 16.199219 4.320312 14.980469 4.320312 Z M 11.046875 14.070312 C 11.480469 14.070312 11.835938 14.414062 11.835938 14.839844 C 11.835938 15.265625 11.480469 15.613281 11.046875 15.613281 C 10.613281 15.613281 10.257812 15.265625 10.257812 14.839844 C 10.257812 14.414062 10.613281 14.070312 11.046875 14.070312 Z M 11.046875 14.070312 "/><use xlink:href="#surface5" mask="url(#mask0)"/></g></svg>