<svg xmlns="http://www.w3.org/2000/svg" xmlns:xlink="http://www.w3.org/1999/xlink" width="18px" height="18px" viewBox="0 0 18 18" version="1.1"><g id="surface1"><path style=" stroke:none;fill-rule:nonzero;fill:rgb(19.215686%,47.058824%,77.647059%);fill-opacity:1;" d="M 1.757812 0 L 16.242188 0 C 17.214844 0 18 0.785156 18 1.757812 L 18 16.242188 C 18 17.214844 17.214844 18 16.242188 18 L 1.757812 18 C 0.785156 18 0 17.214844 0 16.242188 L 0 1.757812 C 0 0.785156 0.785156 0 1.757812 0 Z M 1.757812 0 "/><path style=" stroke:none;fill-rule:nonzero;fill:rgb(19.215686%,47.058824%,77.647059%);fill-opacity:1;" d="M 1.757812 0 L 16.242188 0 C 17.214844 0 18 0.785156 18 1.757812 L 18 16.242188 C 18 17.214844 17.214844 18 16.242188 18 L 1.757812 18 C 0.785156 18 0 17.214844 0 16.242188 L 0 1.757812 C 0 0.785156 0.785156 0 1.757812 0 Z M 1.757812 0 "/><path style=" stroke:none;fill-rule:evenodd;fill:rgb(100%,100%,100%);fill-opacity:1;" d="M 11.140625 14.324219 L 11.140625 16.082031 C 11.429688 16.230469 11.765625 16.339844 12.15625 16.414062 C 12.546875 16.488281 12.960938 16.523438 13.394531 16.523438 C 13.816406 16.523438 14.214844 16.484375 14.59375 16.402344 C 14.972656 16.320312 15.308594 16.1875 15.59375 16.003906 C 15.878906 15.820312 16.105469 15.578125 16.273438 15.277344 C 16.441406 14.980469 16.523438 14.609375 16.523438 14.167969 C 16.523438 13.851562 16.476562 13.570312 16.378906 13.332031 C 16.285156 13.089844 16.148438 12.878906 15.96875 12.691406 C 15.789062 12.503906 15.574219 12.335938 15.320312 12.1875 C 15.070312 12.039062 14.785156 11.898438 14.472656 11.765625 C 14.238281 11.671875 14.03125 11.578125 13.847656 11.488281 C 13.664062 11.398438 13.511719 11.308594 13.382812 11.214844 C 13.253906 11.121094 13.15625 11.019531 13.085938 10.917969 C 13.015625 10.8125 12.980469 10.695312 12.980469 10.5625 C 12.980469 10.441406 13.011719 10.332031 13.074219 10.234375 C 13.136719 10.136719 13.222656 10.054688 13.335938 9.984375 C 13.453125 9.914062 13.589844 9.859375 13.757812 9.820312 C 13.921875 9.785156 14.105469 9.765625 14.304688 9.765625 C 14.453125 9.765625 14.609375 9.773438 14.769531 9.796875 C 14.933594 9.820312 15.097656 9.851562 15.261719 9.898438 C 15.429688 9.945312 15.589844 10.003906 15.746094 10.070312 C 15.902344 10.140625 16.042969 10.222656 16.175781 10.3125 L 16.175781 8.667969 C 15.910156 8.566406 15.617188 8.492188 15.300781 8.441406 C 14.980469 8.390625 14.617188 8.367188 14.207031 8.367188 C 13.789062 8.367188 13.394531 8.414062 13.019531 8.5 C 12.644531 8.589844 12.316406 8.730469 12.03125 8.921875 C 11.746094 9.113281 11.523438 9.355469 11.355469 9.652344 C 11.191406 9.945312 11.109375 10.300781 11.109375 10.710938 C 11.109375 11.234375 11.261719 11.683594 11.5625 12.050781 C 11.867188 12.421875 12.324219 12.734375 12.941406 12.992188 C 13.183594 13.089844 13.410156 13.1875 13.617188 13.285156 C 13.828125 13.378906 14.007812 13.476562 14.160156 13.582031 C 14.3125 13.683594 14.433594 13.796875 14.519531 13.917969 C 14.609375 14.039062 14.652344 14.175781 14.652344 14.328125 C 14.652344 14.441406 14.625 14.546875 14.570312 14.644531 C 14.515625 14.742188 14.433594 14.828125 14.320312 14.898438 C 14.207031 14.96875 14.070312 15.027344 13.902344 15.066406 C 13.734375 15.105469 13.539062 15.125 13.316406 15.125 C 12.933594 15.125 12.554688 15.058594 12.183594 14.925781 C 11.808594 14.792969 11.460938 14.589844 11.140625 14.324219 Z M 8.183594 9.988281 L 10.441406 9.988281 L 10.441406 8.542969 L 4.148438 8.542969 L 4.148438 9.988281 L 6.394531 9.988281 L 6.394531 16.417969 L 8.183594 16.417969 Z M 8.183594 9.988281 "/></g></svg>